PathFileType  4	(X/Y/Z) C:\Users\antoi\Documents\MyRepositories\mobilecap\ResultsAnalysis
DataRate	CameraRate	NumFrames	NumMarkers	Units	OrigDataRate	OrigDataStartFrame	OrigNumFrames
100.0	100.0	7	51	mm	100.0	997	1139
Frame#	Time	r_knee			r_shank_antsup			r_ankle			r_calc			r_5meta			r_toe			L_knee			L_shank_antsup			L_ankle			L_calc			L_5meta			L_toe			r_sh2			r_sh3			r_sh4			L_sh2			L_sh3			r_thigh1			r_thigh2			r_thigh3			r_thigh4			r_thigh5			L_thigh1			L_thigh2			L_thigh3			L_thigh4			r.ASIS			r.PSIS			L.ASIS			L.PSIS			C7			R_Shoulder			L_Shoulder			R_Sternum			L_Sternum			R_humerus			R_elbow_med			R_elbow_lat			R_forearm			R_wrist_radius			R_wrist_ulna			L_humerus			L_elbow_med			L_elbow_lat			L_forearm			L_wrist_radius			L_wrist_ulna			R_HJC			L_HJC			R_HJC_reg			L_HJC_reg			
		X1	Y1	Z1	X2	Y2	Z2	X3	Y3	Z3	X4	Y4	Z4	X5	Y5	Z5	X6	Y6	Z6	X7	Y7	Z7	X8	Y8	Z8	X9	Y9	Z9	X10	Y10	Z10	X11	Y11	Z11	X12	Y12	Z12	X13	Y13	Z13	X14	Y14	Z14	X15	Y15	Z15	X16	Y16	Z16	X17	Y17	Z17	X18	Y18	Z18	X19	Y19	Z19	X20	Y20	Z20	X21	Y21	Z21	X22	Y22	Z22	X23	Y23	Z23	X24	Y24	Z24	X25	Y25	Z25	X26	Y26	Z26	X27	Y27	Z27	X28	Y28	Z28	X29	Y29	Z29	X30	Y30	Z30	X31	Y31	Z31	X32	Y32	Z32	X33	Y33	Z33	X34	Y34	Z34	X35	Y35	Z35	X36	Y36	Z36	X37	Y37	Z37	X38	Y38	Z38	X39	Y39	Z39	X40	Y40	Z40	X41	Y41	Z41	X42	Y42	Z42	X43	Y43	Z43	X44	Y44	Z44	X45	Y45	Z45	X46	Y46	Z46	X47	Y47	Z47	X48	Y48	Z48	X49	Y49	Z49	X50	Y50	Z50	X51	Y51	Z51	

997	9.96000000	-219.13333	614.59461	-367.54666	-199.05764	468.08296	-348.38928	-299.72425	110.43970	-306.77359	-354.35366	78.35319	-371.87425	-171.33919	43.89660	-259.71575	-125.70782	66.19261	-307.48892	-235.25618	612.57069	-868.15885	-200.98525	412.84485	-883.74014	-316.45335	123.00171	-933.69869	-374.12377	81.35912	-877.35120	-180.66181	36.75146	-982.35640	-135.75068	64.69895	-924.30670	-212.36971	355.32919	-338.35692	-267.01633	476.84540	-319.31326	-283.41321	367.27005	-298.73855	-271.51926	438.46345	-932.17411	-294.60602	320.98532	-935.40623	-231.06960	911.83171	-383.21716	-202.01853	804.34698	-367.10082	-259.18213	766.17290	-361.81072	-333.09420	880.21491	-420.42011	-306.78128	767.71015	-391.68168	-202.91958	908.65930	-825.46404	-189.65643	775.43681	-845.95758	-312.19111	904.49662	-831.43084	-296.88399	769.98507	-861.96616	-205.76594	1167.90119	-473.63898	-385.41008	1211.38282	-567.14297	-206.91738	1159.11354	-746.53741	-382.46393	1211.84077	-658.15653	-198.85805	1673.79636	-614.24237	-122.75711	1626.72703	-445.73467	-145.38689	1642.92123	-782.94083	-66.85510	1576.69667	-588.67919	-69.31489	1576.18961	-638.00766	-210.35343	1403.44605	-324.14835	-346.10057	1315.75465	-322.51012	-299.46074	1346.09025	-251.20643	-125.94763	1274.32172	-349.39064	-54.85796	1252.60936	-399.58638	-58.78772	1223.37199	-375.28907	-215.15226	1386.07585	-884.49392	-337.85090	1328.52661	-872.76502	-282.70178	1328.89896	-937.86738	-110.99307	1285.68285	-836.20774	-55.96626	1282.48015	-784.92321	-56.97484	1255.35135	-806.54777	-290.23378	1078.37058	-510.21715	-294.40254	1076.66164	-707.64211	-283.35936	1085.08690	-515.51852	-277.52865	1085.99337	-695.62940	
998	9.97000000	-221.78292	614.97334	-368.19013	-201.46441	468.72117	-348.84256	-299.73839	110.41445	-306.77447	-354.37206	78.33220	-371.85643	-171.33846	43.89380	-259.70870	-125.69324	66.23182	-307.43862	-237.74420	613.20158	-867.46683	-202.82521	413.79117	-883.20189	-316.51308	123.19296	-933.77006	-374.08535	81.54085	-877.35682	-180.62328	36.80111	-982.34114	-135.37675	65.02444	-924.18826	-214.17882	355.88566	-338.40560	-269.54481	477.12941	-319.79626	-285.16120	367.46232	-299.21620	-273.39018	439.08645	-931.89059	-295.79242	321.48369	-935.13499	-229.07400	911.97575	-383.62605	-201.51876	804.57991	-367.66279	-259.30294	767.34807	-362.03274	-331.24951	882.53844	-420.70773	-306.92586	769.69910	-392.07512	-200.24702	908.86498	-825.39175	-189.50574	775.41003	-845.52312	-309.50305	906.77588	-831.62130	-296.71248	771.88071	-861.76749	-201.29409	1170.37374	-473.52694	-381.22630	1211.62304	-567.31041	-202.20248	1161.99600	-746.76000	-378.32961	1212.24932	-658.33220	-205.36621	1677.80537	-614.60666	-129.12528	1633.25511	-445.04947	-151.85836	1648.29075	-783.05599	-71.51427	1583.42128	-588.51271	-73.88808	1582.97477	-637.99624	-215.08999	1408.14799	-325.22020	-349.61835	1318.69961	-324.94301	-303.87058	1349.33429	-253.26883	-128.89073	1279.86202	-350.51144	-57.15481	1258.93157	-400.37397	-61.05411	1229.58334	-376.29591	-219.55607	1390.82810	-884.15743	-341.55885	1331.83759	-870.79651	-286.83186	1332.54036	-936.37980	-114.01473	1290.55141	-835.93981	-58.64226	1287.62134	-784.80910	-59.76050	1260.40872	-806.38726	-284.50804	1079.79265	-510.49034	-288.52219	1078.32498	-707.92018	-277.69196	1086.54545	-515.54652	-271.95272	1087.78636	-695.87065	
999	9.98000000	-224.29141	615.32779	-368.86835	-203.77405	469.03979	-349.56434	-299.74150	110.38618	-306.75172	-354.39761	78.26525	-371.78258	-171.33782	43.88127	-259.69655	-125.68674	66.25700	-307.39184	-240.09233	613.87965	-866.99692	-204.65059	414.67337	-882.60272	-316.60724	123.37640	-933.81348	-374.03909	81.62722	-877.33906	-180.60864	36.83149	-982.33956	-135.20128	65.23888	-924.16069	-215.96852	356.37492	-338.59165	-271.93460	477.30779	-320.27046	-287.09161	367.76352	-299.48113	-275.22507	439.62488	-931.57713	-296.85129	322.01646	-935.05232	-226.54600	913.09155	-384.08837	-201.05369	804.76119	-368.03276	-259.30543	768.41539	-362.30131	-329.40081	884.72760	-420.86299	-306.94803	771.56643	-392.30110	-197.66827	909.02607	-825.44181	-189.34268	775.35736	-845.15294	-306.98135	908.93298	-832.09349	-296.51295	773.59382	-861.62390	-197.01625	1172.49292	-473.38112	-377.26534	1211.56000	-567.47946	-197.71292	1163.92876	-747.18528	-374.40389	1212.40938	-658.58013	-211.63219	1681.08032	-615.03107	-135.13289	1639.17858	-444.34928	-158.16075	1652.94340	-783.10647	-76.05177	1589.35791	-588.36448	-78.40286	1588.99147	-638.00499	-219.77987	1412.17948	-326.22485	-353.07498	1321.12405	-327.56879	-308.32853	1351.94065	-255.38057	-131.86489	1284.92488	-351.65932	-59.44908	1264.84791	-401.18166	-63.22931	1235.32474	-377.45332	-223.85413	1394.68783	-883.83394	-345.13253	1334.47660	-868.95225	-290.88902	1335.54104	-935.01984	-117.04362	1294.88674	-835.71513	-61.28621	1292.32621	-784.71339	-62.42885	1265.05917	-806.28162	-279.17572	1080.93324	-510.62788	-283.10571	1079.36226	-708.05876	-272.26562	1087.22811	-515.63925	-266.59031	1088.91279	-696.34217	
1000	9.99000000	-226.76866	615.60078	-369.58608	-206.06188	469.13679	-350.52694	-299.82201	110.26320	-306.77690	-354.46046	78.16178	-371.66494	-171.33288	43.85332	-259.66373	-125.70636	66.26609	-307.34568	-242.30613	614.52988	-866.70899	-206.45957	415.43085	-882.16326	-316.73990	123.46868	-933.74481	-374.03892	81.63556	-877.32101	-180.61041	36.84483	-982.33901	-135.23474	65.26621	-924.20131	-217.71299	356.85849	-338.90636	-274.21113	477.50353	-320.58943	-288.96889	368.08267	-299.51020	-277.09322	439.96336	-931.18949	-297.94127	322.36315	-934.98657	-223.89937	913.96321	-384.56866	-200.45660	804.87877	-368.37643	-259.15687	769.35421	-362.66097	-327.67130	886.75174	-420.95600	-306.83767	773.27430	-392.36644	-195.21391	909.07982	-825.50971	-189.01816	775.16940	-844.78209	-304.55469	910.89290	-832.77335	-296.30017	775.08904	-861.42213	-192.62739	1174.42551	-473.54217	-373.44013	1211.22527	-567.69423	-193.43041	1165.48823	-747.63320	-370.73017	1212.23903	-658.94153	-217.66523	1683.82637	-615.35633	-140.95123	1644.15104	-443.83610	-164.24495	1656.93319	-783.25029	-80.52255	1594.54149	-588.13203	-82.80947	1594.25278	-638.05280	-224.42386	1415.56019	-327.15693	-356.44124	1322.98182	-330.12230	-312.67903	1353.96878	-257.41618	-134.77339	1289.47607	-352.84651	-61.67168	1270.40726	-401.90516	-65.30271	1240.66183	-378.48940	-228.03065	1397.71996	-883.50469	-348.55322	1336.52567	-867.28209	-294.80942	1337.98976	-933.86424	-119.97770	1298.74494	-835.72490	-63.85439	1296.59472	-784.77734	-64.91673	1269.32848	-806.42930	-273.83521	1081.87986	-510.81184	-277.87149	1080.05417	-708.23892	-266.74719	1087.77435	-515.84224	-261.37548	1089.78429	-696.74803	
1001	10.00000000	-229.28784	615.77204	-370.30572	-208.39371	469.35686	-351.37913	-300.05306	110.01575	-306.86809	-354.55799	78.01628	-371.53514	-171.32673	43.81322	-259.62091	-125.74039	66.25553	-307.29328	-244.49349	614.94428	-866.41221	-208.27795	416.01961	-881.94440	-316.94215	123.41862	-933.62085	-374.07867	81.49844	-877.29085	-180.63164	36.81938	-982.36007	-135.31005	65.24114	-924.23139	-219.41262	357.30684	-339.16155	-276.46048	477.66531	-320.89807	-290.55152	368.23263	-299.47711	-278.99493	440.11102	-930.85554	-299.18869	322.39556	-934.75806	-221.69499	913.82549	-384.97277	-199.64161	804.95426	-368.84653	-258.90327	770.23675	-362.96476	-326.05298	888.62359	-420.97851	-306.62047	774.79199	-392.49194	-192.92481	908.88039	-825.42580	-188.67788	774.94131	-844.51579	-302.24060	912.44550	-833.37915	-296.04643	776.37109	-861.23952	-187.80427	1176.51801	-474.60734	-369.78512	1210.69199	-567.83120	-189.45338	1167.35581	-747.95143	-367.29579	1211.76654	-659.21033	-223.48013	1686.07362	-615.54212	-147.43431	1647.33526	-444.12549	-170.10813	1660.26225	-783.53349	-84.90486	1598.98759	-587.94075	-87.07679	1598.74969	-638.16191	-228.97876	1418.30277	-328.15278	-359.70438	1324.00134	-332.16632	-316.75934	1355.54832	-259.35043	-137.52042	1293.61912	-353.82474	-63.84353	1275.56745	-402.63542	-67.30429	1245.67646	-379.25405	-232.14466	1400.21202	-883.17357	-351.87870	1338.00433	-865.70071	-298.54423	1339.90228	-932.83198	-122.84967	1302.14589	-835.63132	-66.33194	1300.46214	-785.05346	-67.27450	1273.14141	-806.72271	-267.99981	1082.84057	-511.20734	-272.64093	1080.79414	-708.61738	-260.92062	1088.87778	-516.62586	-256.00498	1090.99935	-697.05929	
1002	10.01000000	-231.75343	615.97259	-370.96969	-210.69320	469.73568	-351.93187	-300.24419	109.79631	-306.85517	-354.65549	77.79379	-371.46290	-171.32126	43.77844	-259.58797	-125.77331	66.21920	-307.27081	-246.69438	615.04025	-866.03992	-210.11266	416.42400	-881.77674	-317.22157	123.24040	-933.60806	-374.12105	81.16180	-877.24001	-180.67963	36.71661	-982.43696	-135.36713	65.19930	-924.28698	-221.09268	357.69728	-339.38038	-278.74338	477.75139	-321.29618	-292.03401	368.15003	-299.49257	-280.84927	440.19275	-930.76806	-300.50044	322.19378	-934.49374	-219.83829	913.50969	-385.22611	-198.82851	804.92890	-369.40438	-258.62238	771.05875	-363.17692	-324.40279	890.39866	-420.87342	-306.35505	776.14404	-392.79134	-190.78285	908.43735	-825.30560	-188.42694	774.66043	-844.45074	-300.02029	913.58569	-833.94386	-295.74038	777.41778	-861.23382	-182.95992	1178.61774	-476.17273	-366.42041	1209.97398	-567.87168	-185.82269	1168.95393	-748.18737	-364.10916	1211.08805	-659.33268	-229.06890	1687.77403	-615.73904	-154.60396	1649.05223	-445.08023	-175.80680	1662.90485	-783.74122	-89.18574	1602.74435	-588.00871	-91.20038	1602.52397	-638.35131	-233.36404	1420.42097	-329.26807	-362.80487	1324.32187	-333.94367	-320.71143	1356.69666	-261.20605	-140.11223	1297.36047	-354.65510	-66.04743	1280.31630	-403.38171	-69.26345	1250.33815	-379.93448	-236.14564	1402.23366	-882.83117	-355.06434	1338.93248	-864.22453	-302.11650	1341.25558	-931.79786	-125.65879	1305.02617	-835.15810	-68.72423	1303.91922	-785.42259	-69.56989	1276.49260	-806.91165	-262.18455	1083.75352	-511.57175	-267.72728	1081.30053	-708.95359	-255.19529	1089.98740	-517.82479	-250.65680	1092.17429	-697.40826	
1003	10.02000000	-234.08200	616.19261	-371.60444	-212.87777	470.06979	-352.32341	-300.24066	109.71325	-306.68341	-354.75595	77.50541	-371.53128	-171.31162	43.76255	-259.56421	-125.82076	66.15027	-307.29534	-248.81961	614.95710	-865.71966	-211.86580	416.66858	-881.60818	-317.50333	122.97668	-933.77736	-374.18002	80.73091	-877.26356	-180.73820	36.54417	-982.55396	-135.45248	65.10419	-924.44042	-222.71754	357.99783	-339.71363	-280.99369	477.77088	-321.67413	-293.68275	368.02382	-299.65172	-282.59048	440.20537	-930.82684	-301.72441	321.90067	-934.40766	-217.83111	913.56182	-385.56959	-198.18522	804.78067	-369.98419	-258.36218	771.73737	-363.35342	-322.66297	892.01923	-420.73629	-306.08428	777.39053	-393.11206	-188.79992	907.88202	-825.40363	-188.21777	774.18273	-844.50781	-297.93914	914.38384	-834.52753	-295.43631	778.16777	-861.34866	-179.31529	1179.81094	-476.73248	-363.32657	1209.03251	-568.02007	-182.45687	1169.69955	-748.52575	-361.16033	1210.17531	-659.44808	-234.42370	1688.98475	-616.03048	-161.24938	1650.79518	-445.69884	-181.36014	1664.95503	-783.74262	-93.31122	1605.93913	-588.23434	-95.18749	1605.66713	-638.59648	-237.55086	1421.98768	-330.39860	-365.77975	1324.51282	-336.34100	-324.68341	1357.17746	-263.05912	-142.65493	1300.58399	-355.67641	-68.21106	1284.66212	-404.04954	-71.16561	1254.57035	-380.67953	-239.92041	1403.74492	-882.51669	-358.03948	1339.38067	-863.00825	-305.54609	1342.08101	-930.74603	-128.18382	1307.51584	-834.86038	-70.99614	1307.03759	-785.80885	-71.73739	1279.55007	-807.24365	-257.60190	1084.04753	-511.73520	-263.44996	1081.27180	-709.10550	-250.57722	1090.19095	-518.24197	-246.32672	1092.43382	-697.69736	
